<svg width="271" height="373" viewBox="0 0 271 373" fill="none" xmlns="http://www.w3.org/2000/svg">
<g filter="url(#filter0_d_52_3581)">
<rect x="8" y="8" width="255" height="357" rx="20" fill="white"/>
</g>
<path d="M47.28 40.912H41.952L41.968 50H39.392V38.8H47.296L47.28 40.912ZM54.818 45.728C54.818 45.76 54.802 45.984 54.77 46.4H48.258C48.3753 46.9333 48.6527 47.3547 49.09 47.664C49.5273 47.9733 50.0713 48.128 50.722 48.128C51.17 48.128 51.5647 48.064 51.906 47.936C52.258 47.7973 52.5833 47.584 52.882 47.296L54.21 48.736C53.3993 49.664 52.2153 50.128 50.658 50.128C49.6873 50.128 48.8287 49.9413 48.082 49.568C47.3353 49.184 46.7593 48.656 46.354 47.984C45.9487 47.312 45.746 46.5493 45.746 45.696C45.746 44.8533 45.9433 44.096 46.338 43.424C46.7433 42.7413 47.2927 42.2133 47.986 41.84C48.69 41.456 49.474 41.264 50.338 41.264C51.1807 41.264 51.9433 41.4453 52.626 41.808C53.3087 42.1707 53.842 42.6933 54.226 43.376C54.6207 44.048 54.818 44.832 54.818 45.728ZM50.354 43.152C49.7887 43.152 49.314 43.312 48.93 43.632C48.546 43.952 48.3113 44.3893 48.226 44.944H52.466C52.3807 44.4 52.146 43.968 51.762 43.648C51.378 43.3173 50.9087 43.152 50.354 43.152ZM61.8033 41.264C62.6033 41.264 63.3286 41.4507 63.9792 41.824C64.6406 42.1867 65.1579 42.704 65.5312 43.376C65.9046 44.0373 66.0913 44.8107 66.0913 45.696C66.0913 46.5813 65.9046 47.36 65.5312 48.032C65.1579 48.6933 64.6406 49.2107 63.9792 49.584C63.3286 49.9467 62.6033 50.128 61.8033 50.128C60.7046 50.128 59.8406 49.7813 59.2113 49.088V53.104H56.7153V41.392H59.0993V42.384C59.7179 41.6373 60.6193 41.264 61.8033 41.264ZM61.3713 48.08C62.0113 48.08 62.5339 47.8667 62.9393 47.44C63.3553 47.0027 63.5633 46.4213 63.5633 45.696C63.5633 44.9707 63.3553 44.3947 62.9393 43.968C62.5339 43.5307 62.0113 43.312 61.3713 43.312C60.7313 43.312 60.2033 43.5307 59.7873 43.968C59.3819 44.3947 59.1793 44.9707 59.1793 45.696C59.1793 46.4213 59.3819 47.0027 59.7873 47.44C60.2033 47.8667 60.7313 48.08 61.3713 48.08ZM72.8166 41.984C73.638 41.984 74.358 42.1547 74.9766 42.496C75.5953 42.8267 76.07 43.296 76.4006 43.904C76.742 44.512 76.9126 45.216 76.9126 46.016C76.9126 46.8373 76.71 47.568 76.3046 48.208C75.91 48.8373 75.3553 49.328 74.6406 49.68C73.926 50.0213 73.1153 50.192 72.2086 50.192C70.7046 50.192 69.5206 49.712 68.6566 48.752C67.8033 47.7813 67.3766 46.3627 67.3766 44.496C67.3766 42.768 67.75 41.392 68.4966 40.368C69.254 39.3333 70.4113 38.656 71.9686 38.336L76.0646 37.52L76.4006 39.664L72.7846 40.384C71.8033 40.576 71.0726 40.896 70.5926 41.344C70.1233 41.792 69.846 42.4267 69.7606 43.248C70.134 42.8427 70.582 42.5333 71.1046 42.32C71.6273 42.096 72.198 41.984 72.8166 41.984ZM72.2246 48.256C72.8646 48.256 73.3766 48.048 73.7606 47.632C74.1553 47.216 74.3526 46.688 74.3526 46.048C74.3526 45.3973 74.1553 44.88 73.7606 44.496C73.3766 44.112 72.8646 43.92 72.2246 43.92C71.574 43.92 71.0513 44.112 70.6566 44.496C70.262 44.88 70.0646 45.3973 70.0646 46.048C70.0646 46.6987 70.2673 47.232 70.6726 47.648C71.078 48.0533 71.5953 48.256 72.2246 48.256ZM78.5903 41.392H81.0863V50H78.5903V41.392ZM79.8383 40.192C79.3796 40.192 79.0063 40.0587 78.7183 39.792C78.4303 39.5253 78.2863 39.1947 78.2863 38.8C78.2863 38.4053 78.4303 38.0747 78.7183 37.808C79.0063 37.5413 79.3796 37.408 79.8383 37.408C80.2969 37.408 80.6703 37.536 80.9583 37.792C81.2463 38.048 81.3903 38.368 81.3903 38.752C81.3903 39.168 81.2463 39.5147 80.9583 39.792C80.6703 40.0587 80.2969 40.192 79.8383 40.192ZM93.1773 47.952V51.888H90.8573V50H83.4813V41.392H85.9613V47.952H89.4333V41.392H91.9293V47.952H93.1773ZM94.7469 41.392H97.2269V46.512L101.419 41.392H103.707V50H101.227V44.88L97.0509 50H94.7469V41.392ZM115.754 47.952V51.856H113.434V50H107.386V51.856H105.066V47.952H105.418C105.952 47.9413 106.32 47.6267 106.522 47.008C106.725 46.3893 106.853 45.5093 106.906 44.368L107.018 41.392H114.522V47.952H115.754ZM109.162 44.544C109.13 45.4187 109.061 46.1333 108.954 46.688C108.858 47.2427 108.672 47.664 108.394 47.952H112.026V43.44H109.21L109.162 44.544ZM117.325 41.392H119.805V46.512L123.997 41.392H126.285V50H123.805V44.88L119.629 50H117.325V41.392Z" fill="#84C551"/>
<path d="M51.872 84.384C51.872 85.8667 51.344 87.0347 50.288 87.888C49.2427 88.7307 47.776 89.1787 45.888 89.232V90.384H44.784V89.232C42.896 89.168 41.424 88.7147 40.368 87.872C39.3227 87.0293 38.8 85.8667 38.8 84.384C38.8 82.9013 39.3227 81.7387 40.368 80.896C41.424 80.0533 42.896 79.6 44.784 79.536V78.416H45.888V79.536C47.7653 79.6 49.232 80.0587 50.288 80.912C51.344 81.7547 51.872 82.912 51.872 84.384ZM45.888 88.288C47.4347 88.224 48.6293 87.856 49.472 87.184C50.3147 86.512 50.736 85.5787 50.736 84.384C50.736 83.1893 50.3093 82.256 49.456 81.584C48.6133 80.912 47.424 80.5493 45.888 80.496V88.288ZM39.936 84.384C39.936 85.5787 40.3573 86.512 41.2 87.184C42.0533 87.8453 43.248 88.2133 44.784 88.288V80.496C43.2267 80.56 42.0267 80.928 41.184 81.6C40.352 82.2613 39.936 83.1893 39.936 84.384ZM61.4399 81.584L57.2319 91.008C56.8905 91.7973 56.4959 92.3573 56.0479 92.688C55.5999 93.0187 55.0612 93.184 54.4319 93.184C54.0265 93.184 53.6479 93.12 53.2959 92.992C52.9439 92.864 52.6399 92.672 52.3839 92.416L52.9119 91.568C53.3385 91.9947 53.8505 92.208 54.4479 92.208C54.8319 92.208 55.1572 92.1013 55.4239 91.888C55.7012 91.6747 55.9572 91.312 56.1919 90.8L56.5599 89.984L52.7999 81.584H53.9839L57.1519 88.736L60.3199 81.584H61.4399ZM63.2098 81.584H64.3458V85.312H69.6418V81.584H70.7778V90H69.6418V86.288H64.3458V90H63.2098V81.584ZM79.9586 82.592H75.1426V90H74.0066V81.584H79.9586V82.592ZM81.6004 81.584H82.7364V90H81.6004V81.584ZM82.1764 79.744C81.9417 79.744 81.7444 79.664 81.5844 79.504C81.4244 79.344 81.3444 79.152 81.3444 78.928C81.3444 78.7147 81.4244 78.528 81.5844 78.368C81.7444 78.208 81.9417 78.128 82.1764 78.128C82.411 78.128 82.6084 78.208 82.7684 78.368C82.9284 78.5173 83.0084 78.6987 83.0084 78.912C83.0084 79.1467 82.9284 79.344 82.7684 79.504C82.6084 79.664 82.411 79.744 82.1764 79.744ZM94.7434 89.008V92.112H93.6714V90H85.9754V81.584H87.1114V89.008H92.2474V81.584H93.3834V89.008H94.7434ZM96.9129 81.584H98.0489V88.272L103.665 81.584H104.673V90H103.537V83.312L97.9369 90H96.9129V81.584ZM116.137 89.008V92.032H115.065V90H107.529V92.032H106.457V89.008H106.937C107.502 88.976 107.886 88.56 108.089 87.76C108.291 86.96 108.43 85.84 108.505 84.4L108.617 81.584H114.825V89.008H116.137ZM109.545 84.464C109.491 85.6587 109.39 86.6453 109.241 87.424C109.091 88.192 108.825 88.72 108.441 89.008H113.689V82.592H109.641L109.545 84.464ZM118.35 81.584H119.486V88.272L125.102 81.584H126.11V90H124.974V83.312L119.374 90H118.35V81.584ZM39.888 118.8H41.056V130H39.888V118.8ZM44.5535 121.584H45.6895V125.312H50.9855V121.584H52.1215V130H50.9855V126.288H45.6895V130H44.5535V121.584ZM58.8704 130.08C58.0384 130.08 57.2917 129.899 56.6304 129.536C55.9797 129.173 55.4677 128.667 55.0944 128.016C54.721 127.355 54.5344 126.613 54.5344 125.792C54.5344 124.971 54.721 124.235 55.0944 123.584C55.4677 122.933 55.9797 122.427 56.6304 122.064C57.2917 121.701 58.0384 121.52 58.8704 121.52C59.5957 121.52 60.241 121.664 60.8064 121.952C61.3824 122.229 61.8357 122.64 62.1664 123.184L61.3184 123.76C61.041 123.344 60.689 123.035 60.2624 122.832C59.8357 122.619 59.3717 122.512 58.8704 122.512C58.2624 122.512 57.713 122.651 57.2224 122.928C56.7424 123.195 56.3637 123.579 56.0864 124.08C55.8197 124.581 55.6864 125.152 55.6864 125.792C55.6864 126.443 55.8197 127.019 56.0864 127.52C56.3637 128.011 56.7424 128.395 57.2224 128.672C57.713 128.939 58.2624 129.072 58.8704 129.072C59.3717 129.072 59.8357 128.971 60.2624 128.768C60.689 128.565 61.041 128.256 61.3184 127.84L62.1664 128.416C61.8357 128.96 61.3824 129.376 60.8064 129.664C60.2304 129.941 59.585 130.08 58.8704 130.08ZM71.5854 126.144H64.5454C64.6094 127.019 64.9454 127.728 65.5534 128.272C66.1614 128.805 66.9294 129.072 67.8574 129.072C68.38 129.072 68.86 128.981 69.2974 128.8C69.7347 128.608 70.1134 128.331 70.4334 127.968L71.0734 128.704C70.7 129.152 70.2307 129.493 69.6654 129.728C69.1107 129.963 68.4974 130.08 67.8254 130.08C66.9614 130.08 66.1934 129.899 65.5214 129.536C64.86 129.163 64.3427 128.651 63.9694 128C63.596 127.349 63.4094 126.613 63.4094 125.792C63.4094 124.971 63.5854 124.235 63.9374 123.584C64.3 122.933 64.7907 122.427 65.4094 122.064C66.0387 121.701 66.7427 121.52 67.5214 121.52C68.3 121.52 68.9987 121.701 69.6174 122.064C70.236 122.427 70.7214 122.933 71.0734 123.584C71.4254 124.224 71.6014 124.96 71.6014 125.792L71.5854 126.144ZM67.5214 122.496C66.7107 122.496 66.028 122.757 65.4734 123.28C64.9294 123.792 64.62 124.464 64.5454 125.296H70.5134C70.4387 124.464 70.124 123.792 69.5694 123.28C69.0254 122.757 68.3427 122.496 67.5214 122.496ZM77.172 126.256H75.252V130H74.116V121.584H75.252V125.28H77.188L80.148 121.584H81.38L78.068 125.664L81.62 130H80.276L77.172 126.256ZM89.161 122.592H85.977V130H84.841V122.592H81.657V121.584H89.161V122.592ZM90.8035 121.584H91.9395V128.272L97.5555 121.584H98.5635V130H97.4275V123.312L91.8275 130H90.8035V121.584ZM110.587 129.008V132.112H109.515V130H101.819V121.584H102.955V129.008H108.091V121.584H109.227V129.008H110.587ZM112.757 121.584H113.893V128.272L119.509 121.584H120.517V130H119.381V123.312L113.781 130H112.757V121.584ZM131.98 129.008V132.032H130.908V130H123.372V132.032H122.3V129.008H122.78C123.346 128.976 123.73 128.56 123.932 127.76C124.135 126.96 124.274 125.84 124.348 124.4L124.46 121.584H130.668V129.008H131.98ZM125.388 124.464C125.335 125.659 125.234 126.645 125.084 127.424C124.935 128.192 124.668 128.72 124.284 129.008H129.532V122.592H125.484L125.388 124.464ZM134.194 121.584H135.33V128.272L140.946 121.584H141.954V130H140.818V123.312L135.218 130H134.194V121.584ZM50.176 168.976V172.512H49.072V170H39.296L39.28 172.512H38.176L38.192 168.976H38.752C39.488 168.933 40 168.352 40.288 167.232C40.576 166.101 40.752 164.501 40.816 162.432L40.944 158.8H48.496V168.976H50.176ZM41.872 162.544C41.8187 164.251 41.6853 165.659 41.472 166.768C41.2693 167.867 40.9227 168.603 40.432 168.976H47.328V159.824H41.968L41.872 162.544ZM59.4448 166.144H52.4048C52.4688 167.019 52.8048 167.728 53.4128 168.272C54.0208 168.805 54.7888 169.072 55.7168 169.072C56.2394 169.072 56.7194 168.981 57.1568 168.8C57.5941 168.608 57.9728 168.331 58.2928 167.968L58.9328 168.704C58.5594 169.152 58.0901 169.493 57.5248 169.728C56.9701 169.963 56.3568 170.08 55.6848 170.08C54.8208 170.08 54.0528 169.899 53.3808 169.536C52.7194 169.163 52.2021 168.651 51.8288 168C51.4554 167.349 51.2688 166.613 51.2688 165.792C51.2688 164.971 51.4448 164.235 51.7968 163.584C52.1594 162.933 52.6501 162.427 53.2688 162.064C53.8981 161.701 54.6021 161.52 55.3808 161.52C56.1594 161.52 56.8581 161.701 57.4768 162.064C58.0954 162.427 58.5808 162.933 58.9328 163.584C59.2848 164.224 59.4608 164.96 59.4608 165.792L59.4448 166.144ZM55.3808 162.496C54.5701 162.496 53.8874 162.757 53.3328 163.28C52.7888 163.792 52.4794 164.464 52.4048 165.296H58.3728C58.2981 164.464 57.9834 163.792 57.4288 163.28C56.8848 162.757 56.2021 162.496 55.3808 162.496ZM65.4954 170.08C64.6634 170.08 63.9167 169.899 63.2554 169.536C62.6047 169.173 62.0927 168.667 61.7194 168.016C61.346 167.355 61.1594 166.613 61.1594 165.792C61.1594 164.971 61.346 164.235 61.7194 163.584C62.0927 162.933 62.6047 162.427 63.2554 162.064C63.9167 161.701 64.6634 161.52 65.4954 161.52C66.2207 161.52 66.866 161.664 67.4314 161.952C68.0074 162.229 68.4607 162.64 68.7914 163.184L67.9434 163.76C67.666 163.344 67.314 163.035 66.8874 162.832C66.4607 162.619 65.9967 162.512 65.4954 162.512C64.8874 162.512 64.338 162.651 63.8474 162.928C63.3674 163.195 62.9887 163.579 62.7114 164.08C62.4447 164.581 62.3114 165.152 62.3114 165.792C62.3114 166.443 62.4447 167.019 62.7114 167.52C62.9887 168.011 63.3674 168.395 63.8474 168.672C64.338 168.939 64.8874 169.072 65.4954 169.072C65.9967 169.072 66.4607 168.971 66.8874 168.768C67.314 168.565 67.666 168.256 67.9434 167.84L68.7914 168.416C68.4607 168.96 68.0074 169.376 67.4314 169.664C66.8554 169.941 66.21 170.08 65.4954 170.08ZM70.991 161.584H72.127V168.272L77.743 161.584H78.751V170H77.615V163.312L72.015 170H70.991V161.584ZM85.0626 166.256H83.1426V170H82.0066V161.584H83.1426V165.28H85.0786L88.0386 161.584H89.2706L85.9586 165.664L89.5106 170H88.1666L85.0626 166.256ZM94.0433 161.52C95.1419 161.52 95.9846 161.797 96.5713 162.352C97.1579 162.896 97.4513 163.707 97.4513 164.784V170H96.3633V168.688C96.1073 169.125 95.7286 169.467 95.2273 169.712C94.7366 169.957 94.1499 170.08 93.4673 170.08C92.5286 170.08 91.7819 169.856 91.2273 169.408C90.6726 168.96 90.3953 168.368 90.3953 167.632C90.3953 166.917 90.6513 166.341 91.1633 165.904C91.6859 165.467 92.5126 165.248 93.6432 165.248H96.3153V164.736C96.3153 164.011 96.1126 163.461 95.7073 163.088C95.3019 162.704 94.7099 162.512 93.9313 162.512C93.3979 162.512 92.8859 162.603 92.3953 162.784C91.9046 162.955 91.4833 163.195 91.1313 163.504L90.6193 162.656C91.0459 162.293 91.5579 162.016 92.1553 161.824C92.7526 161.621 93.3819 161.52 94.0433 161.52ZM93.6432 169.184C94.2833 169.184 94.8326 169.04 95.2913 168.752C95.7499 168.453 96.0913 168.027 96.3153 167.472V166.096H93.6753C92.2353 166.096 91.5153 166.597 91.5153 167.6C91.5153 168.091 91.7019 168.48 92.0753 168.768C92.4486 169.045 92.9713 169.184 93.6432 169.184ZM100.475 161.584H101.611V165.312H106.907V161.584H108.043V170H106.907V166.288H101.611V170H100.475V161.584ZM117.192 162.592H114.008V170H112.872V162.592H109.688V161.584H117.192V162.592ZM118.835 161.584H119.971V168.272L125.587 161.584H126.595V170H125.459V163.312L119.859 170H118.835V161.584ZM49.312 198.8V210H48.144V199.824H41.056V210H39.888V198.8H49.312ZM57.1551 201.52C57.9445 201.52 58.6591 201.701 59.2991 202.064C59.9391 202.416 60.4405 202.917 60.8031 203.568C61.1658 204.219 61.3471 204.96 61.3471 205.792C61.3471 206.635 61.1658 207.381 60.8031 208.032C60.4405 208.683 59.9391 209.189 59.2991 209.552C58.6698 209.904 57.9551 210.08 57.1551 210.08C56.4725 210.08 55.8538 209.941 55.2991 209.664C54.7551 209.376 54.3071 208.96 53.9551 208.416V213.104H52.8191V201.584H53.9071V203.248C54.2485 202.693 54.6965 202.267 55.2511 201.968C55.8165 201.669 56.4511 201.52 57.1551 201.52ZM57.0751 209.072C57.6618 209.072 58.1951 208.939 58.6751 208.672C59.1551 208.395 59.5285 208.005 59.7951 207.504C60.0725 207.003 60.2111 206.432 60.2111 205.792C60.2111 205.152 60.0725 204.587 59.7951 204.096C59.5285 203.595 59.1551 203.205 58.6751 202.928C58.1951 202.651 57.6618 202.512 57.0751 202.512C56.4778 202.512 55.9391 202.651 55.4591 202.928C54.9898 203.205 54.6165 203.595 54.3391 204.096C54.0725 204.587 53.9391 205.152 53.9391 205.792C53.9391 206.432 54.0725 207.003 54.3391 207.504C54.6165 208.005 54.9898 208.395 55.4591 208.672C55.9391 208.939 56.4778 209.072 57.0751 209.072ZM67.2599 210.08C66.4492 210.08 65.7185 209.899 65.0679 209.536C64.4172 209.163 63.9052 208.651 63.5319 208C63.1585 207.349 62.9719 206.613 62.9719 205.792C62.9719 204.971 63.1585 204.235 63.5319 203.584C63.9052 202.933 64.4172 202.427 65.0679 202.064C65.7185 201.701 66.4492 201.52 67.2599 201.52C68.0705 201.52 68.8012 201.701 69.4519 202.064C70.1025 202.427 70.6092 202.933 70.9719 203.584C71.3452 204.235 71.5319 204.971 71.5319 205.792C71.5319 206.613 71.3452 207.349 70.9719 208C70.6092 208.651 70.1025 209.163 69.4519 209.536C68.8012 209.899 68.0705 210.08 67.2599 210.08ZM67.2599 209.072C67.8572 209.072 68.3905 208.939 68.8599 208.672C69.3399 208.395 69.7132 208.005 69.9799 207.504C70.2465 207.003 70.3799 206.432 70.3799 205.792C70.3799 205.152 70.2465 204.581 69.9799 204.08C69.7132 203.579 69.3399 203.195 68.8599 202.928C68.3905 202.651 67.8572 202.512 67.2599 202.512C66.6625 202.512 66.1239 202.651 65.6439 202.928C65.1745 203.195 64.8012 203.579 64.5239 204.08C64.2572 204.581 64.1239 205.152 64.1239 205.792C64.1239 206.432 64.2572 207.003 64.5239 207.504C64.8012 208.005 65.1745 208.395 65.6439 208.672C66.1239 208.939 66.6625 209.072 67.2599 209.072ZM79.5673 202.592H76.3833V210H75.2473V202.592H72.0633V201.584H79.5673V202.592ZM85.5458 201.52C86.3351 201.52 87.0498 201.701 87.6898 202.064C88.3298 202.416 88.8311 202.917 89.1938 203.568C89.5564 204.219 89.7378 204.96 89.7378 205.792C89.7378 206.635 89.5564 207.381 89.1938 208.032C88.8311 208.683 88.3298 209.189 87.6898 209.552C87.0604 209.904 86.3458 210.08 85.5458 210.08C84.8631 210.08 84.2444 209.941 83.6898 209.664C83.1458 209.376 82.6978 208.96 82.3458 208.416V213.104H81.2098V201.584H82.2978V203.248C82.6391 202.693 83.0871 202.267 83.6418 201.968C84.2071 201.669 84.8418 201.52 85.5458 201.52ZM85.4658 209.072C86.0524 209.072 86.5858 208.939 87.0658 208.672C87.5458 208.395 87.9191 208.005 88.1858 207.504C88.4631 207.003 88.6018 206.432 88.6018 205.792C88.6018 205.152 88.4631 204.587 88.1858 204.096C87.9191 203.595 87.5458 203.205 87.0658 202.928C86.5858 202.651 86.0524 202.512 85.4658 202.512C84.8684 202.512 84.3298 202.651 83.8498 202.928C83.3804 203.205 83.0071 203.595 82.7298 204.096C82.4631 204.587 82.3298 205.152 82.3298 205.792C82.3298 206.432 82.4631 207.003 82.7298 207.504C83.0071 208.005 83.3804 208.395 83.8498 208.672C84.3298 208.939 84.8684 209.072 85.4658 209.072ZM99.0961 201.584L94.8881 211.008C94.5468 211.797 94.1521 212.357 93.7041 212.688C93.2561 213.019 92.7175 213.184 92.0881 213.184C91.6828 213.184 91.3041 213.12 90.9521 212.992C90.6001 212.864 90.2961 212.672 90.0401 212.416L90.5681 211.568C90.9948 211.995 91.5068 212.208 92.1041 212.208C92.4881 212.208 92.8135 212.101 93.0801 211.888C93.3575 211.675 93.6135 211.312 93.8481 210.8L94.2161 209.984L90.4561 201.584H91.6401L94.8081 208.736L97.9761 201.584H99.0961ZM108.098 201.52C108.887 201.52 109.597 201.701 110.226 202.064C110.866 202.427 111.367 202.933 111.73 203.584C112.093 204.235 112.274 204.971 112.274 205.792C112.274 206.613 112.093 207.349 111.73 208C111.367 208.651 110.866 209.163 110.226 209.536C109.597 209.899 108.887 210.08 108.098 210.08C107.351 210.08 106.674 209.92 106.066 209.6C105.458 209.269 104.962 208.816 104.578 208.24C104.205 207.664 103.986 207.003 103.922 206.256H102.002V210H100.866V201.584H102.002V205.216H103.938C104.023 204.491 104.253 203.851 104.626 203.296C105.01 202.731 105.501 202.293 106.098 201.984C106.695 201.675 107.362 201.52 108.098 201.52ZM108.098 209.088C108.674 209.088 109.191 208.949 109.65 208.672C110.119 208.395 110.487 208.005 110.754 207.504C111.021 207.003 111.154 206.432 111.154 205.792C111.154 205.152 111.021 204.581 110.754 204.08C110.487 203.579 110.119 203.195 109.65 202.928C109.191 202.651 108.674 202.512 108.098 202.512C107.522 202.512 106.999 202.651 106.53 202.928C106.071 203.195 105.709 203.579 105.442 204.08C105.175 204.581 105.042 205.152 105.042 205.792C105.042 206.432 105.175 207.003 105.442 207.504C105.709 208.005 106.071 208.395 106.53 208.672C106.999 208.949 107.522 209.088 108.098 209.088ZM120.07 205.648C121.211 205.915 121.782 206.603 121.782 207.712C121.782 208.448 121.51 209.013 120.966 209.408C120.422 209.803 119.611 210 118.534 210H114.71V201.584H118.422C119.382 201.584 120.134 201.771 120.678 202.144C121.222 202.517 121.494 203.051 121.494 203.744C121.494 204.203 121.366 204.597 121.11 204.928C120.864 205.248 120.518 205.488 120.07 205.648ZM115.814 205.328H118.342C118.992 205.328 119.488 205.205 119.83 204.96C120.182 204.715 120.358 204.357 120.358 203.888C120.358 203.419 120.182 203.067 119.83 202.832C119.488 202.597 118.992 202.48 118.342 202.48H115.814V205.328ZM118.486 209.104C119.211 209.104 119.755 208.987 120.118 208.752C120.48 208.517 120.662 208.149 120.662 207.648C120.662 207.147 120.496 206.779 120.166 206.544C119.835 206.299 119.312 206.176 118.598 206.176H115.814V209.104H118.486ZM127.34 201.52C128.439 201.52 129.281 201.797 129.868 202.352C130.455 202.896 130.748 203.707 130.748 204.784V210H129.66V208.688C129.404 209.125 129.025 209.467 128.524 209.712C128.033 209.957 127.447 210.08 126.764 210.08C125.825 210.08 125.079 209.856 124.524 209.408C123.969 208.96 123.692 208.368 123.692 207.632C123.692 206.917 123.948 206.341 124.46 205.904C124.983 205.467 125.809 205.248 126.94 205.248H129.612V204.736C129.612 204.011 129.409 203.461 129.004 203.088C128.599 202.704 128.007 202.512 127.228 202.512C126.695 202.512 126.183 202.603 125.692 202.784C125.201 202.955 124.78 203.195 124.428 203.504L123.916 202.656C124.343 202.293 124.855 202.016 125.452 201.824C126.049 201.621 126.679 201.52 127.34 201.52ZM126.94 209.184C127.58 209.184 128.129 209.04 128.588 208.752C129.047 208.453 129.388 208.027 129.612 207.472V206.096H126.972C125.532 206.096 124.812 206.597 124.812 207.6C124.812 208.091 124.999 208.48 125.372 208.768C125.745 209.045 126.268 209.184 126.94 209.184ZM140.124 201.584V210H138.988V206.496C138.018 206.923 137.063 207.136 136.124 207.136C135.111 207.136 134.322 206.907 133.756 206.448C133.191 205.979 132.908 205.28 132.908 204.352V201.584H134.044V204.288C134.044 204.917 134.247 205.397 134.652 205.728C135.058 206.048 135.618 206.208 136.332 206.208C137.122 206.208 138.007 206 138.988 205.584V201.584H140.124ZM143.35 201.584H144.486V210H143.35V201.584ZM143.926 199.744C143.692 199.744 143.494 199.664 143.334 199.504C143.174 199.344 143.094 199.152 143.094 198.928C143.094 198.715 143.174 198.528 143.334 198.368C143.494 198.208 143.692 198.128 143.926 198.128C144.161 198.128 144.358 198.208 144.518 198.368C144.678 198.517 144.758 198.699 144.758 198.912C144.758 199.147 144.678 199.344 144.518 199.504C144.358 199.664 144.161 199.744 143.926 199.744ZM47.056 247.008H40.816L39.472 250H38.24L43.36 238.8H44.528L49.648 250H48.4L47.056 247.008ZM46.624 246.048L43.936 240.032L41.248 246.048H46.624ZM59.7615 249.008V252.032H58.6895V250H51.1535V252.032H50.0815V249.008H50.5615C51.1268 248.976 51.5108 248.56 51.7135 247.76C51.9162 246.96 52.0548 245.84 52.1295 244.4L52.2415 241.584H58.4495V249.008H59.7615ZM53.1695 244.464C53.1162 245.659 53.0148 246.645 52.8655 247.424C52.7162 248.192 52.4495 248.72 52.0655 249.008H57.3135V242.592H53.2655L53.1695 244.464ZM62.0714 238.048C62.3167 238.048 62.5194 238.133 62.6794 238.304C62.8394 238.464 62.9194 238.667 62.9194 238.912C62.9194 239.04 62.898 239.179 62.8554 239.328C62.8234 239.467 62.7754 239.632 62.7114 239.824L62.0234 242.032H61.2554L61.8154 239.728C61.634 239.675 61.49 239.579 61.3834 239.44C61.2767 239.291 61.2234 239.115 61.2234 238.912C61.2234 238.656 61.3034 238.448 61.4634 238.288C61.6234 238.128 61.826 238.048 62.0714 238.048ZM72.598 241.52C73.3873 241.52 74.0967 241.701 74.726 242.064C75.366 242.427 75.8673 242.933 76.23 243.584C76.5927 244.235 76.774 244.971 76.774 245.792C76.774 246.613 76.5927 247.349 76.23 248C75.8673 248.651 75.366 249.163 74.726 249.536C74.0967 249.899 73.3873 250.08 72.598 250.08C71.8513 250.08 71.174 249.92 70.566 249.6C69.958 249.269 69.462 248.816 69.078 248.24C68.7047 247.664 68.486 247.003 68.422 246.256H66.502V250H65.366V241.584H66.502V245.216H68.438C68.5233 244.491 68.7527 243.851 69.126 243.296C69.51 242.731 70.0007 242.293 70.598 241.984C71.1953 241.675 71.862 241.52 72.598 241.52ZM72.598 249.088C73.174 249.088 73.6913 248.949 74.15 248.672C74.6193 248.395 74.9873 248.005 75.254 247.504C75.5207 247.003 75.654 246.432 75.654 245.792C75.654 245.152 75.5207 244.581 75.254 244.08C74.9873 243.579 74.6193 243.195 74.15 242.928C73.6913 242.651 73.174 242.512 72.598 242.512C72.022 242.512 71.4993 242.651 71.03 242.928C70.5713 243.195 70.2087 243.579 69.942 244.08C69.6753 244.581 69.542 245.152 69.542 245.792C69.542 246.432 69.6753 247.003 69.942 247.504C70.2087 248.005 70.5713 248.395 71.03 248.672C71.4993 248.949 72.022 249.088 72.598 249.088ZM84.5698 245.648C85.7111 245.915 86.2818 246.603 86.2818 247.712C86.2818 248.448 86.0098 249.013 85.4658 249.408C84.9218 249.803 84.1111 250 83.0338 250H79.2098V241.584H82.9218C83.8818 241.584 84.6338 241.771 85.1778 242.144C85.7218 242.517 85.9938 243.051 85.9938 243.744C85.9938 244.203 85.8658 244.597 85.6098 244.928C85.3644 245.248 85.0178 245.488 84.5698 245.648ZM80.3138 245.328H82.8418C83.4924 245.328 83.9884 245.205 84.3298 244.96C84.6818 244.715 84.8578 244.357 84.8578 243.888C84.8578 243.419 84.6818 243.067 84.3298 242.832C83.9884 242.597 83.4924 242.48 82.8418 242.48H80.3138V245.328ZM82.9858 249.104C83.7111 249.104 84.2551 248.987 84.6178 248.752C84.9804 248.517 85.1618 248.149 85.1618 247.648C85.1618 247.147 84.9964 246.779 84.6658 246.544C84.3351 246.299 83.8124 246.176 83.0978 246.176H80.3138V249.104H82.9858ZM91.8401 241.52C92.9388 241.52 93.7815 241.797 94.3681 242.352C94.9548 242.896 95.2481 243.707 95.2481 244.784V250H94.1601V248.688C93.9041 249.125 93.5255 249.467 93.0241 249.712C92.5335 249.957 91.9468 250.08 91.2641 250.08C90.3255 250.08 89.5788 249.856 89.0241 249.408C88.4695 248.96 88.1921 248.368 88.1921 247.632C88.1921 246.917 88.4481 246.341 88.9601 245.904C89.4828 245.467 90.3095 245.248 91.4401 245.248H94.1121V244.736C94.1121 244.011 93.9095 243.461 93.5041 243.088C93.0988 242.704 92.5068 242.512 91.7281 242.512C91.1948 242.512 90.6828 242.603 90.1921 242.784C89.7015 242.955 89.2801 243.195 88.9281 243.504L88.4161 242.656C88.8428 242.293 89.3548 242.016 89.9521 241.824C90.5495 241.621 91.1788 241.52 91.8401 241.52ZM91.4401 249.184C92.0801 249.184 92.6295 249.04 93.0881 248.752C93.5468 248.453 93.8881 248.027 94.1121 247.472V246.096H91.4721C90.0321 246.096 89.3121 246.597 89.3121 247.6C89.3121 248.091 89.4988 248.48 89.8721 248.768C90.2455 249.045 90.7681 249.184 91.4401 249.184ZM98.2723 241.584H99.4083V245.312H104.704V241.584H105.84V250H104.704V246.288H99.4083V250H98.2723V241.584ZM114.989 242.592H111.805V250H110.669V242.592H107.485V241.584H114.989V242.592ZM116.632 241.584H117.768V248.272L123.384 241.584H124.392V250H123.256V243.312L117.656 250H116.632V241.584ZM44.08 278.8C45.5093 278.8 46.6293 279.141 47.44 279.824C48.2507 280.507 48.656 281.445 48.656 282.64C48.656 283.835 48.2507 284.773 47.44 285.456C46.6293 286.128 45.5093 286.464 44.08 286.464H41.072V290H39.888V278.8H44.08ZM44.048 285.424C45.1573 285.424 46.0053 285.184 46.592 284.704C47.1787 284.213 47.472 283.525 47.472 282.64C47.472 281.733 47.1787 281.04 46.592 280.56C46.0053 280.069 45.1573 279.824 44.048 279.824H41.072V285.424H44.048ZM54.2443 290.08C53.4336 290.08 52.7029 289.899 52.0523 289.536C51.4016 289.163 50.8896 288.651 50.5163 288C50.1429 287.349 49.9563 286.613 49.9563 285.792C49.9563 284.971 50.1429 284.235 50.5163 283.584C50.8896 282.933 51.4016 282.427 52.0523 282.064C52.7029 281.701 53.4336 281.52 54.2443 281.52C55.0549 281.52 55.7856 281.701 56.4363 282.064C57.0869 282.427 57.5936 282.933 57.9563 283.584C58.3296 284.235 58.5163 284.971 58.5163 285.792C58.5163 286.613 58.3296 287.349 57.9563 288C57.5936 288.651 57.0869 289.163 56.4363 289.536C55.7856 289.899 55.0549 290.08 54.2443 290.08ZM54.2443 289.072C54.8416 289.072 55.3749 288.939 55.8443 288.672C56.3243 288.395 56.6976 288.005 56.9643 287.504C57.2309 287.003 57.3643 286.432 57.3643 285.792C57.3643 285.152 57.2309 284.581 56.9643 284.08C56.6976 283.579 56.3243 283.195 55.8443 282.928C55.3749 282.651 54.8416 282.512 54.2443 282.512C53.6469 282.512 53.1083 282.651 52.6283 282.928C52.1589 283.195 51.7856 283.579 51.5082 284.08C51.2416 284.581 51.1083 285.152 51.1083 285.792C51.1083 286.432 51.2416 287.003 51.5082 287.504C51.7856 288.005 52.1589 288.395 52.6283 288.672C53.1083 288.939 53.6469 289.072 54.2443 289.072ZM69.1053 289.008V292.032H68.0333V290H60.4973V292.032H59.4253V289.008H59.9053C60.4706 288.976 60.8546 288.56 61.0573 287.76C61.2599 286.96 61.3986 285.84 61.4733 284.4L61.5853 281.584H67.7933V289.008H69.1053ZM62.5133 284.464C62.4599 285.659 62.3586 286.645 62.2093 287.424C62.0599 288.192 61.7933 288.72 61.4093 289.008H66.6573V282.592H62.6093L62.5133 284.464ZM78.6791 286.144H71.6391C71.7031 287.019 72.0391 287.728 72.6471 288.272C73.2551 288.805 74.0231 289.072 74.9511 289.072C75.4738 289.072 75.9538 288.981 76.3911 288.8C76.8285 288.608 77.2071 288.331 77.5271 287.968L78.1671 288.704C77.7938 289.152 77.3245 289.493 76.7591 289.728C76.2045 289.963 75.5911 290.08 74.9191 290.08C74.0551 290.08 73.2871 289.899 72.6151 289.536C71.9538 289.163 71.4365 288.651 71.0631 288C70.6898 287.349 70.5031 286.613 70.5031 285.792C70.5031 284.971 70.6791 284.235 71.0311 283.584C71.3938 282.933 71.8845 282.427 72.5031 282.064C73.1325 281.701 73.8365 281.52 74.6151 281.52C75.3938 281.52 76.0925 281.701 76.7111 282.064C77.3298 282.427 77.8151 282.933 78.1671 283.584C78.5191 284.224 78.6951 284.96 78.6951 285.792L78.6791 286.144ZM74.6151 282.496C73.8045 282.496 73.1218 282.757 72.5671 283.28C72.0231 283.792 71.7138 284.464 71.6391 285.296H77.6071C77.5325 284.464 77.2178 283.792 76.6631 283.28C76.1191 282.757 75.4365 282.496 74.6151 282.496ZM81.2098 281.584H82.3458V285.312H87.6418V281.584H88.7778V290H87.6418V286.288H82.3458V290H81.2098V281.584ZM97.9266 282.592H94.7426V290H93.6066V282.592H90.4226V281.584H97.9266V282.592ZM99.5691 281.584H100.705V288.272L106.321 281.584H107.329V290H106.193V283.312L100.593 290H99.5691V281.584ZM119.353 289.008V292.112H118.281V290H110.585V281.584H111.721V289.008H116.857V281.584H117.993V289.008H119.353ZM121.522 281.584H122.658V288.272L128.274 281.584H129.282V290H128.146V283.312L122.546 290H121.522V281.584ZM140.746 289.008V292.032H139.674V290H132.138V292.032H131.066V289.008H131.546C132.111 288.976 132.495 288.56 132.698 287.76C132.901 286.96 133.039 285.84 133.114 284.4L133.226 281.584H139.434V289.008H140.746ZM134.154 284.464C134.101 285.659 133.999 286.645 133.85 287.424C133.701 288.192 133.434 288.72 133.05 289.008H138.298V282.592H134.25L134.154 284.464ZM142.96 281.584H144.096V288.272L149.712 281.584H150.72V290H149.584V283.312L143.984 290H142.96V281.584ZM44.08 318.8C45.5093 318.8 46.6293 319.141 47.44 319.824C48.2507 320.507 48.656 321.445 48.656 322.64C48.656 323.835 48.2507 324.773 47.44 325.456C46.6293 326.128 45.5093 326.464 44.08 326.464H41.072V330H39.888V318.8H44.08ZM44.048 325.424C45.1573 325.424 46.0053 325.184 46.592 324.704C47.1787 324.213 47.472 323.525 47.472 322.64C47.472 321.733 47.1787 321.04 46.592 320.56C46.0053 320.069 45.1573 319.824 44.048 319.824H41.072V325.424H44.048ZM58.1323 326.144H51.0923C51.1563 327.019 51.4923 327.728 52.1003 328.272C52.7083 328.805 53.4763 329.072 54.4043 329.072C54.9269 329.072 55.4069 328.981 55.8443 328.8C56.2816 328.608 56.6603 328.331 56.9803 327.968L57.6203 328.704C57.2469 329.152 56.7776 329.493 56.2123 329.728C55.6576 329.963 55.0443 330.08 54.3723 330.08C53.5083 330.08 52.7403 329.899 52.0683 329.536C51.4069 329.163 50.8896 328.651 50.5163 328C50.1429 327.349 49.9563 326.613 49.9563 325.792C49.9563 324.971 50.1323 324.235 50.4843 323.584C50.8469 322.933 51.3376 322.427 51.9563 322.064C52.5856 321.701 53.2896 321.52 54.0683 321.52C54.8469 321.52 55.5456 321.701 56.1643 322.064C56.7829 322.427 57.2683 322.933 57.6203 323.584C57.9723 324.224 58.1483 324.96 58.1483 325.792L58.1323 326.144ZM54.0683 322.496C53.2576 322.496 52.5749 322.757 52.0203 323.28C51.4763 323.792 51.1669 324.464 51.0923 325.296H57.0603C56.9856 324.464 56.6709 323.792 56.1163 323.28C55.5723 322.757 54.8896 322.496 54.0683 322.496ZM66.2079 322.592H63.0239V330H61.8879V322.592H58.7039V321.584H66.2079V322.592ZM70.7464 321.52C71.845 321.52 72.6877 321.797 73.2744 322.352C73.861 322.896 74.1544 323.707 74.1544 324.784V330H73.0664V328.688C72.8104 329.125 72.4317 329.467 71.9304 329.712C71.4397 329.957 70.853 330.08 70.1704 330.08C69.2317 330.08 68.485 329.856 67.9304 329.408C67.3757 328.96 67.0984 328.368 67.0984 327.632C67.0984 326.917 67.3544 326.341 67.8664 325.904C68.389 325.467 69.2157 325.248 70.3464 325.248H73.0184V324.736C73.0184 324.011 72.8157 323.461 72.4104 323.088C72.005 322.704 71.413 322.512 70.6344 322.512C70.101 322.512 69.589 322.603 69.0984 322.784C68.6077 322.955 68.1864 323.195 67.8344 323.504L67.3224 322.656C67.749 322.293 68.261 322.016 68.8584 321.824C69.4557 321.621 70.085 321.52 70.7464 321.52ZM70.3464 329.184C70.9864 329.184 71.5357 329.04 71.9944 328.752C72.453 328.453 72.7944 328.027 73.0184 327.472V326.096H70.3784C68.9384 326.096 68.2184 326.597 68.2184 327.6C68.2184 328.091 68.405 328.48 68.7784 328.768C69.1517 329.045 69.6744 329.184 70.3464 329.184ZM81.5145 321.52C82.3038 321.52 83.0185 321.701 83.6585 322.064C84.2985 322.416 84.7998 322.917 85.1625 323.568C85.5252 324.219 85.7065 324.96 85.7065 325.792C85.7065 326.635 85.5252 327.381 85.1625 328.032C84.7998 328.683 84.2985 329.189 83.6585 329.552C83.0292 329.904 82.3145 330.08 81.5145 330.08C80.8318 330.08 80.2132 329.941 79.6585 329.664C79.1145 329.376 78.6665 328.96 78.3145 328.416V333.104H77.1785V321.584H78.2665V323.248C78.6078 322.693 79.0558 322.267 79.6105 321.968C80.1758 321.669 80.8105 321.52 81.5145 321.52ZM81.4345 329.072C82.0212 329.072 82.5545 328.939 83.0345 328.672C83.5145 328.395 83.8878 328.005 84.1545 327.504C84.4318 327.003 84.5705 326.432 84.5705 325.792C84.5705 325.152 84.4318 324.587 84.1545 324.096C83.8878 323.595 83.5145 323.205 83.0345 322.928C82.5545 322.651 82.0212 322.512 81.4345 322.512C80.8372 322.512 80.2985 322.651 79.8185 322.928C79.3492 323.205 78.9758 323.595 78.6985 324.096C78.4318 324.587 78.2985 325.152 78.2985 325.792C78.2985 326.432 78.4318 327.003 78.6985 327.504C78.9758 328.005 79.3492 328.395 79.8185 328.672C80.2985 328.939 80.8372 329.072 81.4345 329.072ZM96.3084 329.008V332.032H95.2364V330H87.7004V332.032H86.6284V329.008H87.1084C87.6737 328.976 88.0577 328.56 88.2604 327.76C88.463 326.96 88.6017 325.84 88.6764 324.4L88.7884 321.584H94.9964V329.008H96.3084ZM89.7164 324.464C89.663 325.659 89.5617 326.645 89.4124 327.424C89.263 328.192 88.9964 328.72 88.6124 329.008H93.8604V322.592H89.8124L89.7164 324.464ZM101.418 321.52C102.517 321.52 103.36 321.797 103.946 322.352C104.533 322.896 104.826 323.707 104.826 324.784V330H103.738V328.688C103.482 329.125 103.104 329.467 102.602 329.712C102.112 329.957 101.525 330.08 100.842 330.08C99.9036 330.08 99.1569 329.856 98.6023 329.408C98.0476 328.96 97.7703 328.368 97.7703 327.632C97.7703 326.917 98.0263 326.341 98.5383 325.904C99.0609 325.467 99.8876 325.248 101.018 325.248H103.69V324.736C103.69 324.011 103.488 323.461 103.082 323.088C102.677 322.704 102.085 322.512 101.306 322.512C100.773 322.512 100.261 322.603 99.7703 322.784C99.2796 322.955 98.8583 323.195 98.5063 323.504L97.9943 322.656C98.4209 322.293 98.9329 322.016 99.5303 321.824C100.128 321.621 100.757 321.52 101.418 321.52ZM101.018 329.184C101.658 329.184 102.208 329.04 102.666 328.752C103.125 328.453 103.466 328.027 103.69 327.472V326.096H101.05C99.6103 326.096 98.8903 326.597 98.8903 327.6C98.8903 328.091 99.0769 328.48 99.4503 328.768C99.8236 329.045 100.346 329.184 101.018 329.184ZM107.85 321.584H108.986V325.312H114.282V321.584H115.418V330H114.282V326.288H108.986V330H107.85V321.584ZM124.567 322.592H121.383V330H120.247V322.592H117.063V321.584H124.567V322.592ZM126.21 321.584H127.346V328.272L132.962 321.584H133.97V330H132.834V323.312L127.234 330H126.21V321.584Z" fill="black" fill-opacity="0.5"/>
<path d="M208.788 52.328C208.34 51.592 207.996 50.748 207.756 49.796C207.516 48.836 207.396 47.808 207.396 46.712C207.396 45.616 207.516 44.588 207.756 43.628C207.996 42.66 208.34 41.816 208.788 41.096H209.604C209.132 41.904 208.784 42.772 208.56 43.7C208.344 44.628 208.236 45.632 208.236 46.712C208.236 47.792 208.344 48.796 208.56 49.724C208.784 50.652 209.132 51.52 209.604 52.328H208.788ZM216.458 49.232V50H210.566V49.388L214.058 45.968C214.498 45.536 214.794 45.164 214.946 44.852C215.106 44.532 215.186 44.212 215.186 43.892C215.186 43.396 215.014 43.012 214.67 42.74C214.334 42.46 213.85 42.32 213.218 42.32C212.234 42.32 211.47 42.632 210.926 43.256L210.314 42.728C210.642 42.344 211.058 42.048 211.562 41.84C212.074 41.632 212.65 41.528 213.29 41.528C214.146 41.528 214.822 41.732 215.318 42.14C215.822 42.54 216.074 43.092 216.074 43.796C216.074 44.228 215.978 44.644 215.786 45.044C215.594 45.444 215.23 45.904 214.694 46.424L211.838 49.232H216.458ZM223.278 49.232V50H217.386V49.388L220.878 45.968C221.318 45.536 221.614 45.164 221.766 44.852C221.926 44.532 222.006 44.212 222.006 43.892C222.006 43.396 221.834 43.012 221.49 42.74C221.154 42.46 220.67 42.32 220.038 42.32C219.054 42.32 218.29 42.632 217.746 43.256L217.134 42.728C217.462 42.344 217.878 42.048 218.382 41.84C218.894 41.632 219.47 41.528 220.11 41.528C220.966 41.528 221.642 41.732 222.138 42.14C222.642 42.54 222.894 43.092 222.894 43.796C222.894 44.228 222.798 44.644 222.606 45.044C222.414 45.444 222.05 45.904 221.514 46.424L218.658 49.232H223.278ZM226.978 41.528C228.09 41.528 228.942 41.896 229.534 42.632C230.126 43.36 230.422 44.392 230.422 45.728C230.422 46.664 230.262 47.456 229.942 48.104C229.622 48.752 229.174 49.244 228.598 49.58C228.022 49.908 227.35 50.072 226.582 50.072C225.75 50.072 225.086 49.92 224.59 49.616L224.938 48.92C225.338 49.184 225.882 49.316 226.57 49.316C227.498 49.316 228.226 49.024 228.754 48.44C229.282 47.848 229.546 46.992 229.546 45.872C229.546 45.664 229.534 45.436 229.51 45.188C229.302 45.644 228.97 46 228.514 46.256C228.058 46.504 227.534 46.628 226.942 46.628C226.39 46.628 225.898 46.524 225.466 46.316C225.042 46.108 224.71 45.816 224.47 45.44C224.23 45.056 224.11 44.612 224.11 44.108C224.11 43.596 224.234 43.144 224.482 42.752C224.73 42.36 225.07 42.06 225.502 41.852C225.942 41.636 226.434 41.528 226.978 41.528ZM227.074 45.896C227.498 45.896 227.87 45.816 228.19 45.656C228.518 45.496 228.774 45.276 228.958 44.996C229.142 44.716 229.234 44.404 229.234 44.06C229.234 43.74 229.146 43.444 228.97 43.172C228.802 42.9 228.55 42.68 228.214 42.512C227.878 42.344 227.478 42.26 227.014 42.26C226.406 42.26 225.91 42.428 225.526 42.764C225.15 43.092 224.962 43.532 224.962 44.084C224.962 44.636 225.15 45.076 225.526 45.404C225.91 45.732 226.426 45.896 227.074 45.896ZM231.531 52.328C232.003 51.52 232.351 50.656 232.575 49.736C232.799 48.808 232.911 47.8 232.911 46.712C232.911 45.624 232.799 44.62 232.575 43.7C232.351 42.772 232.003 41.904 231.531 41.096H232.347C232.795 41.816 233.139 42.66 233.379 43.628C233.627 44.588 233.751 45.616 233.751 46.712C233.751 47.808 233.631 48.836 233.391 49.796C233.151 50.756 232.803 51.6 232.347 52.328H231.531ZM215.609 92.328C215.161 91.592 214.817 90.748 214.577 89.796C214.337 88.836 214.217 87.808 214.217 86.712C214.217 85.616 214.337 84.588 214.577 83.628C214.817 82.66 215.161 81.816 215.609 81.096H216.425C215.953 81.904 215.605 82.772 215.381 83.7C215.165 84.628 215.057 85.632 215.057 86.712C215.057 87.792 215.165 88.796 215.381 89.724C215.605 90.652 215.953 91.52 216.425 92.328H215.609ZM223.278 89.232V90H217.386V89.388L220.878 85.968C221.318 85.536 221.614 85.164 221.766 84.852C221.926 84.532 222.006 84.212 222.006 83.892C222.006 83.396 221.834 83.012 221.49 82.74C221.154 82.46 220.67 82.32 220.038 82.32C219.054 82.32 218.29 82.632 217.746 83.256L217.134 82.728C217.462 82.344 217.878 82.048 218.382 81.84C218.894 81.632 219.47 81.528 220.11 81.528C220.966 81.528 221.642 81.732 222.138 82.14C222.642 82.54 222.894 83.092 222.894 83.796C222.894 84.228 222.798 84.644 222.606 85.044C222.414 85.444 222.05 85.904 221.514 86.424L218.658 89.232H223.278ZM226.978 81.528C228.09 81.528 228.942 81.896 229.534 82.632C230.126 83.36 230.422 84.392 230.422 85.728C230.422 86.664 230.262 87.456 229.942 88.104C229.622 88.752 229.174 89.244 228.598 89.58C228.022 89.908 227.35 90.072 226.582 90.072C225.75 90.072 225.086 89.92 224.59 89.616L224.938 88.92C225.338 89.184 225.882 89.316 226.57 89.316C227.498 89.316 228.226 89.024 228.754 88.44C229.282 87.848 229.546 86.992 229.546 85.872C229.546 85.664 229.534 85.436 229.51 85.188C229.302 85.644 228.97 86 228.514 86.256C228.058 86.504 227.534 86.628 226.942 86.628C226.39 86.628 225.898 86.524 225.466 86.316C225.042 86.108 224.71 85.816 224.47 85.44C224.23 85.056 224.11 84.612 224.11 84.108C224.11 83.596 224.234 83.144 224.482 82.752C224.73 82.36 225.07 82.06 225.502 81.852C225.942 81.636 226.434 81.528 226.978 81.528ZM227.074 85.896C227.498 85.896 227.87 85.816 228.19 85.656C228.518 85.496 228.774 85.276 228.958 84.996C229.142 84.716 229.234 84.404 229.234 84.06C229.234 83.74 229.146 83.444 228.97 83.172C228.802 82.9 228.55 82.68 228.214 82.512C227.878 82.344 227.478 82.26 227.014 82.26C226.406 82.26 225.91 82.428 225.526 82.764C225.15 83.092 224.962 83.532 224.962 84.084C224.962 84.636 225.15 85.076 225.526 85.404C225.91 85.732 226.426 85.896 227.074 85.896ZM231.531 92.328C232.003 91.52 232.351 90.656 232.575 89.736C232.799 88.808 232.911 87.8 232.911 86.712C232.911 85.624 232.799 84.62 232.575 83.7C232.351 82.772 232.003 81.904 231.531 81.096H232.347C232.795 81.816 233.139 82.66 233.379 83.628C233.627 84.588 233.751 85.616 233.751 86.712C233.751 87.808 233.631 88.836 233.391 89.796C233.151 90.756 232.803 91.6 232.347 92.328H231.531ZM222.429 132.328C221.981 131.592 221.637 130.748 221.397 129.796C221.157 128.836 221.037 127.808 221.037 126.712C221.037 125.616 221.157 124.588 221.397 123.628C221.637 122.66 221.981 121.816 222.429 121.096H223.245C222.773 121.904 222.425 122.772 222.201 123.7C221.985 124.628 221.877 125.632 221.877 126.712C221.877 127.792 221.985 128.796 222.201 129.724C222.425 130.652 222.773 131.52 223.245 132.328H222.429ZM226.978 121.528C228.09 121.528 228.942 121.896 229.534 122.632C230.126 123.36 230.422 124.392 230.422 125.728C230.422 126.664 230.262 127.456 229.942 128.104C229.622 128.752 229.174 129.244 228.598 129.58C228.022 129.908 227.35 130.072 226.582 130.072C225.75 130.072 225.086 129.92 224.59 129.616L224.938 128.92C225.338 129.184 225.882 129.316 226.57 129.316C227.498 129.316 228.226 129.024 228.754 128.44C229.282 127.848 229.546 126.992 229.546 125.872C229.546 125.664 229.534 125.436 229.51 125.188C229.302 125.644 228.97 126 228.514 126.256C228.058 126.504 227.534 126.628 226.942 126.628C226.39 126.628 225.898 126.524 225.466 126.316C225.042 126.108 224.71 125.816 224.47 125.44C224.23 125.056 224.11 124.612 224.11 124.108C224.11 123.596 224.234 123.144 224.482 122.752C224.73 122.36 225.07 122.06 225.502 121.852C225.942 121.636 226.434 121.528 226.978 121.528ZM227.074 125.896C227.498 125.896 227.87 125.816 228.19 125.656C228.518 125.496 228.774 125.276 228.958 124.996C229.142 124.716 229.234 124.404 229.234 124.06C229.234 123.74 229.146 123.444 228.97 123.172C228.802 122.9 228.55 122.68 228.214 122.512C227.878 122.344 227.478 122.26 227.014 122.26C226.406 122.26 225.91 122.428 225.526 122.764C225.15 123.092 224.962 123.532 224.962 124.084C224.962 124.636 225.15 125.076 225.526 125.404C225.91 125.732 226.426 125.896 227.074 125.896ZM231.531 132.328C232.003 131.52 232.351 130.656 232.575 129.736C232.799 128.808 232.911 127.8 232.911 126.712C232.911 125.624 232.799 124.62 232.575 123.7C232.351 122.772 232.003 121.904 231.531 121.096H232.347C232.795 121.816 233.139 122.66 233.379 123.628C233.627 124.588 233.751 125.616 233.751 126.712C233.751 127.808 233.631 128.836 233.391 129.796C233.151 130.756 232.803 131.6 232.347 132.328H231.531ZM207.71 172.328C207.262 171.592 206.918 170.748 206.678 169.796C206.438 168.836 206.318 167.808 206.318 166.712C206.318 165.616 206.438 164.588 206.678 163.628C206.918 162.66 207.262 161.816 207.71 161.096H208.526C208.054 161.904 207.706 162.772 207.482 163.7C207.266 164.628 207.158 165.632 207.158 166.712C207.158 167.792 207.266 168.796 207.482 169.724C207.706 170.652 208.054 171.52 208.526 172.328H207.71ZM215.38 169.232V170H209.488V169.388L212.98 165.968C213.42 165.536 213.716 165.164 213.868 164.852C214.028 164.532 214.108 164.212 214.108 163.892C214.108 163.396 213.936 163.012 213.592 162.74C213.256 162.46 212.772 162.32 212.14 162.32C211.156 162.32 210.392 162.632 209.848 163.256L209.236 162.728C209.564 162.344 209.98 162.048 210.484 161.84C210.996 161.632 211.572 161.528 212.212 161.528C213.068 161.528 213.744 161.732 214.24 162.14C214.744 162.54 214.996 163.092 214.996 163.796C214.996 164.228 214.9 164.644 214.708 165.044C214.516 165.444 214.152 165.904 213.616 166.424L210.76 169.232H215.38ZM219.765 170.072C219.117 170.072 218.537 169.9 218.025 169.556C217.521 169.212 217.125 168.72 216.837 168.08C216.557 167.432 216.417 166.672 216.417 165.8C216.417 164.928 216.557 164.172 216.837 163.532C217.125 162.884 217.521 162.388 218.025 162.044C218.537 161.7 219.117 161.528 219.765 161.528C220.413 161.528 220.989 161.7 221.493 162.044C222.005 162.388 222.405 162.884 222.693 163.532C222.981 164.172 223.125 164.928 223.125 165.8C223.125 166.672 222.981 167.432 222.693 168.08C222.405 168.72 222.005 169.212 221.493 169.556C220.989 169.9 220.413 170.072 219.765 170.072ZM219.765 169.28C220.253 169.28 220.681 169.144 221.049 168.872C221.425 168.6 221.717 168.204 221.925 167.684C222.133 167.164 222.237 166.536 222.237 165.8C222.237 165.064 222.133 164.436 221.925 163.916C221.717 163.396 221.425 163 221.049 162.728C220.681 162.456 220.253 162.32 219.765 162.32C219.277 162.32 218.845 162.456 218.469 162.728C218.101 163 217.813 163.396 217.605 163.916C217.397 164.436 217.293 165.064 217.293 165.8C217.293 166.536 217.397 167.164 217.605 167.684C217.813 168.204 218.101 168.6 218.469 168.872C218.845 169.144 219.277 169.28 219.765 169.28ZM226.978 161.528C228.09 161.528 228.942 161.896 229.534 162.632C230.126 163.36 230.422 164.392 230.422 165.728C230.422 166.664 230.262 167.456 229.942 168.104C229.622 168.752 229.174 169.244 228.598 169.58C228.022 169.908 227.35 170.072 226.582 170.072C225.75 170.072 225.086 169.92 224.59 169.616L224.938 168.92C225.338 169.184 225.882 169.316 226.57 169.316C227.498 169.316 228.226 169.024 228.754 168.44C229.282 167.848 229.546 166.992 229.546 165.872C229.546 165.664 229.534 165.436 229.51 165.188C229.302 165.644 228.97 166 228.514 166.256C228.058 166.504 227.534 166.628 226.942 166.628C226.39 166.628 225.898 166.524 225.466 166.316C225.042 166.108 224.71 165.816 224.47 165.44C224.23 165.056 224.11 164.612 224.11 164.108C224.11 163.596 224.234 163.144 224.482 162.752C224.73 162.36 225.07 162.06 225.502 161.852C225.942 161.636 226.434 161.528 226.978 161.528ZM227.074 165.896C227.498 165.896 227.87 165.816 228.19 165.656C228.518 165.496 228.774 165.276 228.958 164.996C229.142 164.716 229.234 164.404 229.234 164.06C229.234 163.74 229.146 163.444 228.97 163.172C228.802 162.9 228.55 162.68 228.214 162.512C227.878 162.344 227.478 162.26 227.014 162.26C226.406 162.26 225.91 162.428 225.526 162.764C225.15 163.092 224.962 163.532 224.962 164.084C224.962 164.636 225.15 165.076 225.526 165.404C225.91 165.732 226.426 165.896 227.074 165.896ZM231.531 172.328C232.003 171.52 232.351 170.656 232.575 169.736C232.799 168.808 232.911 167.8 232.911 166.712C232.911 165.624 232.799 164.62 232.575 163.7C232.351 162.772 232.003 161.904 231.531 161.096H232.347C232.795 161.816 233.139 162.66 233.379 163.628C233.627 164.588 233.751 165.616 233.751 166.712C233.751 167.808 233.631 168.836 233.391 169.796C233.151 170.756 232.803 171.6 232.347 172.328H231.531ZM210.57 212.328C210.122 211.592 209.778 210.748 209.538 209.796C209.298 208.836 209.178 207.808 209.178 206.712C209.178 205.616 209.298 204.588 209.538 203.628C209.778 202.66 210.122 201.816 210.57 201.096H211.386C210.914 201.904 210.566 202.772 210.342 203.7C210.126 204.628 210.018 205.632 210.018 206.712C210.018 207.792 210.126 208.796 210.342 209.724C210.566 210.652 210.914 211.52 211.386 212.328H210.57ZM214.948 201.6V210H214.084V202.368H212.104V201.6H214.948ZM222.692 209.232V210H216.8V209.388L220.292 205.968C220.732 205.536 221.028 205.164 221.18 204.852C221.34 204.532 221.42 204.212 221.42 203.892C221.42 203.396 221.248 203.012 220.904 202.74C220.568 202.46 220.084 202.32 219.452 202.32C218.468 202.32 217.704 202.632 217.16 203.256L216.548 202.728C216.876 202.344 217.292 202.048 217.796 201.84C218.308 201.632 218.884 201.528 219.524 201.528C220.38 201.528 221.056 201.732 221.552 202.14C222.056 202.54 222.308 203.092 222.308 203.796C222.308 204.228 222.212 204.644 222.02 205.044C221.828 205.444 221.464 205.904 220.928 206.424L218.072 209.232H222.692ZM227.077 210.072C226.429 210.072 225.849 209.9 225.337 209.556C224.833 209.212 224.437 208.72 224.149 208.08C223.869 207.432 223.729 206.672 223.729 205.8C223.729 204.928 223.869 204.172 224.149 203.532C224.437 202.884 224.833 202.388 225.337 202.044C225.849 201.7 226.429 201.528 227.077 201.528C227.725 201.528 228.301 201.7 228.805 202.044C229.317 202.388 229.717 202.884 230.005 203.532C230.293 204.172 230.437 204.928 230.437 205.8C230.437 206.672 230.293 207.432 230.005 208.08C229.717 208.72 229.317 209.212 228.805 209.556C228.301 209.9 227.725 210.072 227.077 210.072ZM227.077 209.28C227.565 209.28 227.993 209.144 228.361 208.872C228.737 208.6 229.029 208.204 229.237 207.684C229.445 207.164 229.549 206.536 229.549 205.8C229.549 205.064 229.445 204.436 229.237 203.916C229.029 203.396 228.737 203 228.361 202.728C227.993 202.456 227.565 202.32 227.077 202.32C226.589 202.32 226.157 202.456 225.781 202.728C225.413 203 225.125 203.396 224.917 203.916C224.709 204.436 224.605 205.064 224.605 205.8C224.605 206.536 224.709 207.164 224.917 207.684C225.125 208.204 225.413 208.6 225.781 208.872C226.157 209.144 226.589 209.28 227.077 209.28ZM231.531 212.328C232.003 211.52 232.351 210.656 232.575 209.736C232.799 208.808 232.911 207.8 232.911 206.712C232.911 205.624 232.799 204.62 232.575 203.7C232.351 202.772 232.003 201.904 231.531 201.096H232.347C232.795 201.816 233.139 202.66 233.379 203.628C233.627 204.588 233.751 205.616 233.751 206.712C233.751 207.808 233.631 208.836 233.391 209.796C233.151 210.756 232.803 211.6 232.347 212.328H231.531ZM211.788 252.328C211.34 251.592 210.996 250.748 210.756 249.796C210.516 248.836 210.396 247.808 210.396 246.712C210.396 245.616 210.516 244.588 210.756 243.628C210.996 242.66 211.34 241.816 211.788 241.096H212.604C212.132 241.904 211.784 242.772 211.56 243.7C211.344 244.628 211.236 245.632 211.236 246.712C211.236 247.792 211.344 248.796 211.56 249.724C211.784 250.652 212.132 251.52 212.604 252.328H211.788ZM219.458 249.232V250H213.566V249.388L217.058 245.968C217.498 245.536 217.794 245.164 217.946 244.852C218.106 244.532 218.186 244.212 218.186 243.892C218.186 243.396 218.014 243.012 217.67 242.74C217.334 242.46 216.85 242.32 216.218 242.32C215.234 242.32 214.47 242.632 213.926 243.256L213.314 242.728C213.642 242.344 214.058 242.048 214.562 241.84C215.074 241.632 215.65 241.528 216.29 241.528C217.146 241.528 217.822 241.732 218.318 242.14C218.822 242.54 219.074 243.092 219.074 243.796C219.074 244.228 218.978 244.644 218.786 245.044C218.594 245.444 218.23 245.904 217.694 246.424L214.838 249.232H219.458ZM222.87 241.6V250H222.006V242.368H220.026V241.6H222.87ZM227.086 245.044C228.302 245.044 229.186 245.264 229.738 245.704C230.298 246.136 230.578 246.744 230.578 247.528C230.578 248.016 230.462 248.452 230.23 248.836C230.006 249.22 229.666 249.524 229.21 249.748C228.754 249.964 228.194 250.072 227.53 250.072C226.93 250.072 226.358 249.976 225.814 249.784C225.278 249.584 224.846 249.32 224.518 248.992L224.938 248.308C225.218 248.596 225.586 248.832 226.042 249.016C226.498 249.192 226.99 249.28 227.518 249.28C228.214 249.28 228.75 249.124 229.126 248.812C229.51 248.5 229.702 248.084 229.702 247.564C229.702 246.988 229.486 246.552 229.054 246.256C228.63 245.96 227.91 245.812 226.894 245.812H225.106L225.538 241.6H230.134V242.368H226.294L226.006 245.044H227.086ZM231.531 252.328C232.003 251.52 232.351 250.656 232.575 249.736C232.799 248.808 232.911 247.8 232.911 246.712C232.911 245.624 232.799 244.62 232.575 243.7C232.351 242.772 232.003 241.904 231.531 241.096H232.347C232.795 241.816 233.139 242.66 233.379 243.628C233.627 244.588 233.751 245.616 233.751 246.712C233.751 247.808 233.631 248.836 233.391 249.796C233.151 250.756 232.803 251.6 232.347 252.328H231.531ZM210.066 292.328C209.618 291.592 209.274 290.748 209.034 289.796C208.794 288.836 208.674 287.808 208.674 286.712C208.674 285.616 208.794 284.588 209.034 283.628C209.274 282.66 209.618 281.816 210.066 281.096H210.882C210.41 281.904 210.062 282.772 209.838 283.7C209.622 284.628 209.514 285.632 209.514 286.712C209.514 287.792 209.622 288.796 209.838 289.724C210.062 290.652 210.41 291.52 210.882 292.328H210.066ZM218.905 287.792H217.225V290H216.361V287.792H211.621V287.168L216.073 281.6H217.033L212.737 287.024H216.385V285.08H217.225V287.024H218.905V287.792ZM221.722 281.6V290H220.858V282.368H218.878V281.6H221.722ZM227.077 290.072C226.429 290.072 225.849 289.9 225.337 289.556C224.833 289.212 224.437 288.72 224.149 288.08C223.869 287.432 223.729 286.672 223.729 285.8C223.729 284.928 223.869 284.172 224.149 283.532C224.437 282.884 224.833 282.388 225.337 282.044C225.849 281.7 226.429 281.528 227.077 281.528C227.725 281.528 228.301 281.7 228.805 282.044C229.317 282.388 229.717 282.884 230.005 283.532C230.293 284.172 230.437 284.928 230.437 285.8C230.437 286.672 230.293 287.432 230.005 288.08C229.717 288.72 229.317 289.212 228.805 289.556C228.301 289.9 227.725 290.072 227.077 290.072ZM227.077 289.28C227.565 289.28 227.993 289.144 228.361 288.872C228.737 288.6 229.029 288.204 229.237 287.684C229.445 287.164 229.549 286.536 229.549 285.8C229.549 285.064 229.445 284.436 229.237 283.916C229.029 283.396 228.737 283 228.361 282.728C227.993 282.456 227.565 282.32 227.077 282.32C226.589 282.32 226.157 282.456 225.781 282.728C225.413 283 225.125 283.396 224.917 283.916C224.709 284.436 224.605 285.064 224.605 285.8C224.605 286.536 224.709 287.164 224.917 287.684C225.125 288.204 225.413 288.6 225.781 288.872C226.157 289.144 226.589 289.28 227.077 289.28ZM231.531 292.328C232.003 291.52 232.351 290.656 232.575 289.736C232.799 288.808 232.911 287.8 232.911 286.712C232.911 285.624 232.799 284.62 232.575 283.7C232.351 282.772 232.003 281.904 231.531 281.096H232.347C232.795 281.816 233.139 282.66 233.379 283.628C233.627 284.588 233.751 285.616 233.751 286.712C233.751 287.808 233.631 288.836 233.391 289.796C233.151 290.756 232.803 291.6 232.347 292.328H231.531ZM215.023 332.328C214.575 331.592 214.231 330.748 213.991 329.796C213.751 328.836 213.631 327.808 213.631 326.712C213.631 325.616 213.751 324.588 213.991 323.628C214.231 322.66 214.575 321.816 215.023 321.096H215.839C215.367 321.904 215.019 322.772 214.795 323.7C214.579 324.628 214.471 325.632 214.471 326.712C214.471 327.792 214.579 328.796 214.795 329.724C215.019 330.652 215.367 331.52 215.839 332.328H215.023ZM219.812 325.2C220.692 325.248 221.36 325.488 221.816 325.92C222.28 326.344 222.512 326.9 222.512 327.588C222.512 328.068 222.396 328.496 222.164 328.872C221.932 329.24 221.588 329.532 221.132 329.748C220.676 329.964 220.12 330.072 219.464 330.072C218.856 330.072 218.28 329.976 217.736 329.784C217.2 329.584 216.768 329.32 216.44 328.992L216.86 328.308C217.14 328.596 217.512 328.832 217.976 329.016C218.44 329.192 218.936 329.28 219.464 329.28C220.152 329.28 220.684 329.132 221.06 328.836C221.436 328.532 221.624 328.116 221.624 327.588C221.624 327.068 221.436 326.66 221.06 326.364C220.684 326.068 220.116 325.92 219.356 325.92H218.756V325.284L221.084 322.368H216.788V321.6H222.188V322.212L219.812 325.2ZM227.077 330.072C226.429 330.072 225.849 329.9 225.337 329.556C224.833 329.212 224.437 328.72 224.149 328.08C223.869 327.432 223.729 326.672 223.729 325.8C223.729 324.928 223.869 324.172 224.149 323.532C224.437 322.884 224.833 322.388 225.337 322.044C225.849 321.7 226.429 321.528 227.077 321.528C227.725 321.528 228.301 321.7 228.805 322.044C229.317 322.388 229.717 322.884 230.005 323.532C230.293 324.172 230.437 324.928 230.437 325.8C230.437 326.672 230.293 327.432 230.005 328.08C229.717 328.72 229.317 329.212 228.805 329.556C228.301 329.9 227.725 330.072 227.077 330.072ZM227.077 329.28C227.565 329.28 227.993 329.144 228.361 328.872C228.737 328.6 229.029 328.204 229.237 327.684C229.445 327.164 229.549 326.536 229.549 325.8C229.549 325.064 229.445 324.436 229.237 323.916C229.029 323.396 228.737 323 228.361 322.728C227.993 322.456 227.565 322.32 227.077 322.32C226.589 322.32 226.157 322.456 225.781 322.728C225.413 323 225.125 323.396 224.917 323.916C224.709 324.436 224.605 325.064 224.605 325.8C224.605 326.536 224.709 327.164 224.917 327.684C225.125 328.204 225.413 328.6 225.781 328.872C226.157 329.144 226.589 329.28 227.077 329.28ZM231.531 332.328C232.003 331.52 232.351 330.656 232.575 329.736C232.799 328.808 232.911 327.8 232.911 326.712C232.911 325.624 232.799 324.62 232.575 323.7C232.351 322.772 232.003 321.904 231.531 321.096H232.347C232.795 321.816 233.139 322.66 233.379 323.628C233.627 324.588 233.751 325.616 233.751 326.712C233.751 327.808 233.631 328.836 233.391 329.796C233.151 330.756 232.803 331.6 232.347 332.328H231.531Z" fill="#E74E13"/>
<defs>
<filter id="filter0_d_52_3581" x="0" y="0" width="271" height="373" filterUnits="userSpaceOnUse" color-interpolation-filters="sRGB">
<feFlood flood-opacity="0" result="BackgroundImageFix"/>
<feColorMatrix in="SourceAlpha" type="matrix" values="0 0 0 0 0 0 0 0 0 0 0 0 0 0 0 0 0 0 127 0" result="hardAlpha"/>
<feOffset/>
<feGaussianBlur stdDeviation="4"/>
<feComposite in2="hardAlpha" operator="out"/>
<feColorMatrix type="matrix" values="0 0 0 0 0 0 0 0 0 0 0 0 0 0 0 0 0 0 0.15 0"/>
<feBlend mode="normal" in2="BackgroundImageFix" result="effect1_dropShadow_52_3581"/>
<feBlend mode="normal" in="SourceGraphic" in2="effect1_dropShadow_52_3581" result="shape"/>
</filter>
</defs>
</svg>
