<svg width="268" height="55" viewBox="0 0 268 55" fill="none" xmlns="http://www.w3.org/2000/svg">
<path d="M31.957 19.0072C31.8473 18.9976 31.7369 18.9976 31.6272 19.0072H23.2067H18.1218C13.3429 19.1807 9.7507 20.3662 7.34528 22.5638C7.23059 22.665 7.12064 22.7662 7.0155 22.8771C5.6325 24.2763 4.65714 26.0317 4.1959 27.9518L0 44H13.859C18.6157 43.8265 22.1967 42.6506 24.6022 40.4723C24.7169 40.3711 24.8267 40.265 24.9367 40.159C26.3415 38.7575 27.3339 36.991 27.804 35.0554L32 19.0072H31.957ZM19.503 32.9012C19.2219 33.9994 18.6485 34.9993 17.8447 35.7927C17.7348 35.8988 17.6201 36.0048 17.5006 36.106L17.2999 36.265C16.3645 36.9829 15.2418 37.41 14.0693 37.494H10.4611L12.4635 30.1108C12.7385 29.0165 13.3016 28.0174 14.0932 27.2192C14.2031 27.1132 14.3178 27.0072 14.4373 26.906L14.6666 26.718C15.602 26.0002 16.7247 25.573 17.8972 25.4891H21.5101L19.503 32.9012Z" fill="#84C551"/>
<path d="M236.043 19.0072C236.153 18.9976 236.263 18.9976 236.373 19.0072H244.793H249.878C254.657 19.1807 258.249 20.3662 260.655 22.5638C260.769 22.665 260.879 22.7662 260.984 22.8771C262.368 24.2763 263.343 26.0317 263.804 27.9518L268 44H254.141C249.384 43.8265 245.803 42.6506 243.398 40.4723C243.283 40.3711 243.173 40.265 243.063 40.159C241.659 38.7575 240.666 36.991 240.196 35.0554L236 19.0072H236.043ZM248.497 32.9012C248.778 33.9994 249.352 34.9993 250.155 35.7927C250.265 35.8988 250.38 36.0048 250.499 36.106L250.7 36.265C251.635 36.9829 252.758 37.41 253.931 37.494H257.539L255.536 30.1108C255.261 29.0165 254.698 28.0174 253.907 27.2192C253.797 27.1132 253.682 27.0072 253.563 26.906L253.333 26.718C252.398 26.0002 251.275 25.573 250.103 25.4891H246.49L248.497 32.9012Z" fill="#84C551"/>
<path d="M66.11 31.31H61.07V44H53.825V12.5H61.07V25.235H66.29L74.57 12.5H82.265L71.96 27.71L82.58 44H74.3L66.11 31.31ZM96.4435 44.36C93.8935 44.36 91.5985 43.835 89.5585 42.785C87.5485 41.705 85.9735 40.22 84.8335 38.33C83.6935 36.44 83.1235 34.295 83.1235 31.895C83.1235 29.495 83.6935 27.35 84.8335 25.46C85.9735 23.57 87.5485 22.1 89.5585 21.05C91.5985 19.97 93.8935 19.43 96.4435 19.43C98.9935 19.43 101.274 19.97 103.284 21.05C105.294 22.1 106.869 23.57 108.009 25.46C109.149 27.35 109.719 29.495 109.719 31.895C109.719 34.295 109.149 36.44 108.009 38.33C106.869 40.22 105.294 41.705 103.284 42.785C101.274 43.835 98.9935 44.36 96.4435 44.36ZM96.4435 38.6C98.2435 38.6 99.7135 38 100.854 36.8C102.024 35.57 102.609 33.935 102.609 31.895C102.609 29.855 102.024 28.235 100.854 27.035C99.7135 25.805 98.2435 25.19 96.4435 25.19C94.6435 25.19 93.1585 25.805 91.9885 27.035C90.8185 28.235 90.2335 29.855 90.2335 31.895C90.2335 33.935 90.8185 35.57 91.9885 36.8C93.1585 38 94.6435 38.6 96.4435 38.6ZM151.492 19.79V44H114.547V19.79H121.522V38.24H129.577V19.79H136.552V38.24H144.517V19.79H151.492ZM158.229 19.79H165.204V34.19L176.994 19.79H183.429V44H176.454V29.6L164.709 44H158.229V19.79ZM200.842 34.82H197.197V44H190.177V19.79H197.197V29.195H200.977L207.547 19.79H215.017L206.557 31.4L215.602 44H207.322L200.842 34.82Z" fill="black"/>
</svg>
